<?xml version="1.0" encoding="UTF-8" standalone="no"?>
<svg
   xmlns:dc="http://purl.org/dc/elements/1.1/"
   xmlns:cc="http://creativecommons.org/ns#"
   xmlns:rdf="http://www.w3.org/1999/02/22-rdf-syntax-ns#"
   xmlns:svg="http://www.w3.org/2000/svg"
   xmlns="http://www.w3.org/2000/svg"
   xmlns:sodipodi="http://sodipodi.sourceforge.net/DTD/sodipodi-0.dtd"
   xmlns:inkscape="http://www.inkscape.org/namespaces/inkscape"
   version="1.1"
   id="Layer_1"
   x="0px"
   y="0px"
   viewBox="0 0 122.88 115.71"
   style="enable-background:new 0 0 122.88 115.71"
   xml:space="preserve"
   sodipodi:docname="icon.svg"
   inkscape:version="1.0.1 (0767f8302a, 2020-10-17)"
   inkscape:export-filename="candlestick-data-lake/src/app/static/icon.png"
   inkscape:export-xdpi="96"
   inkscape:export-ydpi="96"><metadata
     id="metadata43"><rdf:RDF><cc:Work
         rdf:about=""><dc:format>image/svg+xml</dc:format><dc:type
           rdf:resource="http://purl.org/dc/dcmitype/StillImage" /><dc:title></dc:title></cc:Work></rdf:RDF></metadata><defs
     id="defs41" /><sodipodi:namedview
     pagecolor="#ffffff"
     bordercolor="#666666"
     borderopacity="1"
     objecttolerance="10"
     gridtolerance="10"
     guidetolerance="10"
     inkscape:pageopacity="0"
     inkscape:pageshadow="2"
     inkscape:window-width="1320"
     inkscape:window-height="704"
     id="namedview39"
     showgrid="false"
     inkscape:zoom="1"
     inkscape:cx="-92.392286"
     inkscape:cy="122.63516"
     inkscape:window-x="46"
     inkscape:window-y="27"
     inkscape:window-maximized="1"
     inkscape:current-layer="Layer_1" /><style
     type="text/css"
     id="style2"><![CDATA[
	.st0{fill-rule:evenodd;clip-rule:evenodd;fill:#4AE351;}
	.st1{fill-rule:evenodd;clip-rule:evenodd;fill:#FB4049;}
	.st2{fill:#393939;}
]]></style><ellipse
     style="fill:#ececec;stroke-width:0.969253"
     id="path45"
     cx="61.407845"
     cy="57.92326"
     rx="57.842499"
     ry="57.842716"
     inkscape:export-xdpi="424.88"
     inkscape:export-ydpi="424.88" /><g
     id="g36"
     transform="matrix(-0.72182115,0,0,0.72182115,105.89272,13.927423)"
     inkscape:export-xdpi="424.88"
     inkscape:export-ydpi="424.88"><path
       class="st2"
       d="m 80.33,52.45 c 0,1.29 -1.05,2.34 -2.34,2.34 -1.29,0 -2.34,-1.05 -2.34,-2.34 V 37.98 c 0,-1.29 1.05,-2.34 2.34,-2.34 1.29,0 2.34,1.05 2.34,2.34 z"
       id="path4" /><path
       class="st2"
       d="m 80.33,113.36 c 0,1.29 -1.05,2.34 -2.34,2.34 -1.29,0 -2.34,-1.05 -2.34,-2.34 V 98.89 c 0,-1.29 1.05,-2.34 2.34,-2.34 1.29,0 2.34,1.05 2.34,2.34 z"
       id="path6" /><path
       class="st2"
       d="m 70,49.23 h 15.77 c 1.13,0 2.16,0.47 2.92,1.23 0.79,0.79 1.28,1.89 1.28,3.1 v 43.26 c 0,1.21 -0.49,2.31 -1.28,3.1 -0.76,0.76 -1.79,1.23 -2.92,1.23 H 70 c -1.13,0 -2.16,-0.47 -2.92,-1.23 -0.79,-0.79 -1.28,-1.89 -1.28,-3.1 V 53.56 c 0,-1.21 0.49,-2.31 1.28,-3.1 0.77,-0.76 1.8,-1.23 2.92,-1.23 z m 13.75,6.48 H 72.03 v 38.95 h 11.72 z"
       id="path8" /><path
       class="st0"
       d="m 70,52.47 h 15.77 c 0.6,0 1.09,0.49 1.09,1.09 v 43.26 c 0,0.6 -0.49,1.09 -1.09,1.09 H 70 c -0.6,0 -1.09,-0.49 -1.09,-1.09 V 53.56 c 0.01,-0.6 0.5,-1.09 1.09,-1.09 z"
       id="path10"
       style="fill:#4ae351;fill-opacity:1" /><path
       class="st2"
       d="m 113.02,43.35 c 0,1.29 -1.05,2.34 -2.34,2.34 -1.29,0 -2.34,-1.05 -2.34,-2.34 v -19.5 c 0,-1.29 1.05,-2.34 2.34,-2.34 1.29,0 2.34,1.05 2.34,2.34 z"
       id="path12" /><path
       class="st2"
       d="m 113.02,103.03 c 0,1.29 -1.05,2.34 -2.34,2.34 -1.29,0 -2.34,-1.05 -2.34,-2.34 V 83.54 c 0,-1.29 1.05,-2.34 2.34,-2.34 1.29,0 2.34,1.05 2.34,2.34 z"
       id="path14" /><path
       class="st2"
       d="m 102.91,40.1 h 15.77 c 1.13,0 2.16,0.47 2.92,1.23 0.79,0.79 1.28,1.89 1.28,3.1 v 36.38 c 0,1.21 -0.49,2.31 -1.28,3.1 -0.76,0.76 -1.79,1.23 -2.92,1.23 h -15.77 c -1.13,0 -2.16,-0.47 -2.92,-1.23 -0.79,-0.79 -1.28,-1.88 -1.28,-3.1 V 44.43 c 0,-1.21 0.49,-2.31 1.28,-3.1 0.76,-0.75 1.79,-1.23 2.92,-1.23 z m 13.75,6.49 h -11.72 v 32.08 h 11.72 z"
       id="path16" /><path
       class="st1"
       d="m 102.91,43.35 h 15.77 c 0.6,0 1.09,0.49 1.09,1.09 v 36.38 c 0,0.6 -0.49,1.09 -1.09,1.09 h -15.77 c -0.6,0 -1.09,-0.49 -1.09,-1.09 V 44.43 c 0,-0.6 0.49,-1.08 1.09,-1.08 z"
       id="path18" /><path
       class="st2"
       d="m 47.33,19.69 c 0,1.29 -1.05,2.34 -2.34,2.34 -1.29,0 -2.34,-1.05 -2.34,-2.34 V 2.34 C 42.65,1.05 43.7,0 44.99,0 c 1.29,0 2.34,1.05 2.34,2.34 z"
       id="path20" /><path
       class="st2"
       d="m 47.33,90.41 c 0,1.29 -1.05,2.34 -2.34,2.34 -1.29,0 -2.34,-1.05 -2.34,-2.34 V 73.07 c 0,-1.29 1.05,-2.34 2.34,-2.34 1.29,0 2.34,1.05 2.34,2.34 z"
       id="path22" /><path
       class="st2"
       d="m 37.1,16.45 h 15.77 c 1.13,0 2.16,0.47 2.92,1.23 0.79,0.79 1.28,1.89 1.28,3.1 v 50.17 c 0,1.21 -0.49,2.31 -1.28,3.1 -0.76,0.76 -1.79,1.23 -2.92,1.23 H 37.1 c -1.12,0 -2.16,-0.47 -2.92,-1.23 -0.79,-0.79 -1.28,-1.88 -1.28,-3.1 V 20.78 c 0,-1.21 0.49,-2.31 1.28,-3.1 0.76,-0.76 1.8,-1.23 2.92,-1.23 z m 13.75,6.48 H 39.13 v 45.86 h 11.72 z"
       id="path24" /><path
       class="st1"
       d="m 37.1,19.69 h 15.77 c 0.6,0 1.09,0.49 1.09,1.09 v 50.17 c 0,0.6 -0.49,1.09 -1.09,1.09 H 37.1 c -0.6,0 -1.09,-0.49 -1.09,-1.09 V 20.78 c 0,-0.6 0.49,-1.09 1.09,-1.09 z"
       id="path26"
       style="fill:#4ae351;fill-opacity:1" /><path
       class="st2"
       d="m 14.43,97.2 c 0,1.29 -1.05,2.34 -2.34,2.34 -1.29,0 -2.34,-1.05 -2.34,-2.34 V 76.9 c 0,-1.29 1.05,-2.34 2.34,-2.34 1.29,0 2.34,1.05 2.34,2.34 z"
       id="path28" /><path
       class="st2"
       d="m 14.43,28.22 c 0,1.29 -1.05,2.34 -2.34,2.34 -1.29,0 -2.34,-1.05 -2.34,-2.34 V 7.93 c 0,-1.29 1.05,-2.34 2.34,-2.34 1.29,0 2.34,1.05 2.34,2.34 z"
       id="path30" /><path
       class="st2"
       d="m 4.2,25.57 h 15.77 c 1.13,0 2.16,0.47 2.92,1.23 0.79,0.79 1.28,1.89 1.28,3.1 v 45.92 c 0,1.21 -0.49,2.31 -1.28,3.1 -0.76,0.76 -1.79,1.23 -2.92,1.23 H 4.2 C 3.07,80.15 2.04,79.68 1.28,78.92 0.49,78.13 0,77.03 0,75.82 V 29.9 C 0,28.69 0.49,27.59 1.28,26.8 2.04,26.04 3.07,25.57 4.2,25.57 Z m 13.75,6.48 H 6.22 V 73.66 H 17.94 V 32.05 Z"
       id="path32" /><path
       class="st0"
       d="m 4.2,28.81 h 15.77 c 0.6,0 1.09,0.49 1.09,1.09 v 45.92 c 0,0.6 -0.49,1.09 -1.09,1.09 H 4.2 c -0.6,0 -1.09,-0.49 -1.09,-1.09 V 29.9 c 0,-0.6 0.49,-1.09 1.09,-1.09 z"
       id="path34"
       style="fill:#fb4049;fill-opacity:1" /></g><text
     xml:space="preserve"
     style="font-style:normal;font-weight:normal;font-size:26.6667px;line-height:1.25;font-family:sans-serif;fill:#4d4d4d;fill-opacity:1;stroke:none;stroke-width:0.625511;"
     x="63.647377"
     y="106.10566"
     id="text890-4"
     inkscape:export-xdpi="424.88"
     inkscape:export-ydpi="424.88"><tspan
       sodipodi:role="line"
       id="tspan888-3"
       x="63.647377"
       y="106.10566"
       style="font-style:normal;font-variant:normal;font-weight:normal;font-stretch:normal;font-size:26.6667px;font-family:Impact;-inkscape-font-specification:Impact;fill:#4d4d4d;stroke-width:0.625511;">DL</tspan></text><text
     xml:space="preserve"
     style="font-style:normal;font-weight:normal;font-size:26.6667px;line-height:1.25;font-family:sans-serif;fill:#4d4d4d;fill-opacity:1;stroke:none;stroke-width:0.625511"
     x="31.469997"
     y="31.704437"
     id="text890-4-2"
     inkscape:export-xdpi="424.88"
     inkscape:export-ydpi="424.88"><tspan
       sodipodi:role="line"
       id="tspan888-3-4"
       x="31.469997"
       y="31.704437"
       style="font-style:normal;font-variant:normal;font-weight:normal;font-stretch:normal;font-size:26.6667px;font-family:Impact;-inkscape-font-specification:Impact;fill:#4d4d4d;stroke-width:0.625511">CS</tspan></text></svg>
